# Blender 4.1.1
# www.blender.org
mtllib model1.mtl
o Cube
v 0.981737 -1.060689 1.467901
v 0.981736 1.939311 1.467901
v -2.018263 -1.060690 1.467901
v -2.018264 1.939310 1.467901
v 0.981737 -1.060689 -1.532099
v 0.981736 1.939311 -1.532099
v -2.018263 -1.060689 -1.532099
v -2.018264 1.939311 -1.532099
v -1.568264 1.489311 -2.532099
v -1.568263 -0.610689 -2.532099
v 0.531737 -0.610689 -2.532099
v 0.531736 1.489311 -2.532099
v -1.568264 1.489311 -2.532099
v -1.568263 -0.610689 -2.532099
v 0.531737 -0.610689 -2.532099
v 0.531736 1.489311 -2.532099
v -1.568264 1.489311 -7.532099
v -1.568264 -0.610689 -7.532099
v 0.531736 -0.610688 -7.532099
v 0.531736 1.489312 -7.532099
v -1.568264 -1.510687 -17.532099
v -1.568264 -3.610688 -17.532099
v 0.531736 -3.610687 -17.532099
v 0.531736 -1.510687 -17.532099
v -1.568264 -1.510687 -17.532099
v -1.568264 -3.610688 -17.532099
v 0.531736 -3.610687 -17.532099
v 0.531736 -1.510687 -17.532099
v -1.988264 -1.090687 -18.532099
v -1.988263 -4.030687 -18.532099
v 0.951736 -4.030687 -18.532099
v 0.951736 -1.090687 -18.532099
v -3.311264 -1.090687 -21.532099
v -3.311264 -4.030687 -21.532099
v 2.274736 -4.030687 -21.532099
v 2.274735 -1.090686 -21.532099
v -0.518264 -4.030687 -21.532099
v -0.518264 -1.090687 -21.532099
v -0.518264 -1.090687 -21.532099
v 2.274735 -1.090686 -21.532099
v 2.274736 -4.030687 -21.532099
v -0.518264 -4.030687 -21.532099
v -5.311265 -1.090686 -33.532101
v -5.311264 -4.030686 -33.532101
v -2.518264 -4.030685 -33.532101
v -2.518265 -1.090685 -33.532101
v -0.518264 -1.090686 -24.532099
v 2.274735 -1.090686 -24.532099
v 2.274736 -4.030687 -24.532099
v -0.518264 -4.030687 -24.532099
v 11.274734 -1.090685 -21.532101
v 11.274734 -4.030685 -21.532101
v 11.274734 -1.090685 -24.532101
v 11.274734 -4.030685 -24.532101
vn -0.0000 -0.0000 1.0000
vn -1.0000 -0.0000 -0.0000
vn -0.0000 0.9119 -0.4104
vn 1.0000 -0.0000 -0.0000
vn -0.0000 -1.0000 -0.0000
vn -0.0000 1.0000 -0.0000
vn -0.0000 -0.0000 -1.0000
vn -0.9119 -0.0000 -0.4104
vn 0.9119 -0.0000 -0.4104
vn -0.0000 -0.9119 -0.4104
vn -0.0000 -0.9578 0.2873
vn -0.0000 0.9578 -0.2873
vn -0.9220 -0.0000 0.3872
vn 0.9220 -0.0000 0.3872
vn -0.0000 -0.9220 0.3872
vn -0.0000 0.9220 0.3872
vn -0.9150 -0.0000 0.4035
vn 0.9150 -0.0000 0.4035
vn -0.9864 -0.0000 0.1644
vn 0.9864 -0.0000 -0.1644
vt 0.625000 0.000000
vt 0.375000 0.250000
vt 0.375000 0.000000
vt 0.625000 0.250000
vt 0.375000 0.500000
vt 0.625000 0.750000
vt 0.625000 0.500000
vt 0.375000 1.000000
vt 0.375000 0.750000
vt 0.125000 0.750000
vt 0.125000 0.500000
vt 0.875000 0.500000
vt 0.625000 0.625000
vt 0.375000 0.625000
vt 0.625000 1.000000
vt 0.875000 0.750000
s 0
f 2/1/1 3/2/1 1/3/1
f 4/4/2 7/5/2 3/2/2
f 6/6/3 9/7/3 8/7/3
f 6/6/4 1/8/4 5/9/4
f 7/5/5 1/10/5 3/11/5
f 4/12/6 6/6/6 8/7/6
f 9/7/7 16/6/7 13/7/7
f 8/7/8 10/5/8 7/5/8
f 5/9/9 12/6/9 6/6/9
f 7/5/10 11/9/10 5/9/10
f 16/6/4 19/9/4 20/6/4
f 10/5/7 13/7/7 14/5/7
f 12/6/7 15/9/7 16/6/7
f 11/9/7 14/5/7 15/9/7
f 19/9/4 24/6/4 20/6/4
f 14/5/5 19/9/5 15/9/5
f 16/6/6 17/7/6 13/7/6
f 13/7/2 18/5/2 14/5/2
f 21/7/7 28/6/7 25/7/7
f 18/5/11 23/9/11 19/9/11
f 20/6/12 21/7/12 17/7/12
f 18/5/2 21/7/2 22/5/2
f 26/5/13 29/7/13 30/5/13
f 22/5/7 25/7/7 26/5/7
f 24/6/7 27/9/7 28/6/7
f 23/9/7 26/5/7 27/9/7
f 32/6/6 38/13/6 33/7/6
f 27/9/14 32/6/14 28/6/14
f 27/9/15 30/5/15 31/9/15
f 28/6/16 29/7/16 25/7/16
f 36/6/7 41/9/7 40/6/7
f 29/7/17 34/5/17 30/5/17
f 31/9/18 36/6/18 32/6/18
f 30/5/5 37/14/5 35/9/5
f 33/7/19 44/5/19 34/5/19
f 42/14/5 49/9/5 41/9/5
f 37/14/7 39/13/7 42/14/7
f 35/9/7 42/14/7 41/9/7
f 38/13/7 40/6/7 39/13/7
f 44/5/7 46/13/7 45/14/7
f 33/7/6 46/13/6 43/7/6
f 34/5/5 45/14/5 37/14/5
f 37/14/20 46/13/20 38/13/20
f 47/13/7 49/9/7 50/14/7
f 40/6/6 47/13/6 39/13/6
f 39/13/2 50/14/2 42/14/2
f 48/6/7 54/9/7 49/9/7
f 52/9/4 53/6/4 51/6/4
f 40/6/6 53/6/6 48/6/6
f 41/9/1 51/6/1 40/6/1
f 49/9/5 52/9/5 41/9/5
f 2/1/1 4/4/1 3/2/1
f 4/4/2 8/7/2 7/5/2
f 6/6/3 12/6/3 9/7/3
f 6/6/4 2/15/4 1/8/4
f 7/5/5 5/9/5 1/10/5
f 4/12/6 2/16/6 6/6/6
f 9/7/7 12/6/7 16/6/7
f 8/7/8 9/7/8 10/5/8
f 5/9/9 11/9/9 12/6/9
f 7/5/10 10/5/10 11/9/10
f 16/6/4 15/9/4 19/9/4
f 10/5/7 9/7/7 13/7/7
f 12/6/7 11/9/7 15/9/7
f 11/9/7 10/5/7 14/5/7
f 19/9/4 23/9/4 24/6/4
f 14/5/5 18/5/5 19/9/5
f 16/6/6 20/6/6 17/7/6
f 13/7/2 17/7/2 18/5/2
f 21/7/7 24/6/7 28/6/7
f 18/5/11 22/5/11 23/9/11
f 20/6/12 24/6/12 21/7/12
f 18/5/2 17/7/2 21/7/2
f 26/5/13 25/7/13 29/7/13
f 22/5/7 21/7/7 25/7/7
f 24/6/7 23/9/7 27/9/7
f 23/9/7 22/5/7 26/5/7
f 33/7/6 29/7/6 32/6/6
f 32/6/6 36/6/6 38/13/6
f 27/9/14 31/9/14 32/6/14
f 27/9/15 26/5/15 30/5/15
f 28/6/16 32/6/16 29/7/16
f 36/6/7 35/9/7 41/9/7
f 29/7/17 33/7/17 34/5/17
f 31/9/18 35/9/18 36/6/18
f 35/9/5 31/9/5 30/5/5
f 30/5/5 34/5/5 37/14/5
f 33/7/19 43/7/19 44/5/19
f 42/14/5 50/14/5 49/9/5
f 37/14/7 38/13/7 39/13/7
f 35/9/7 37/14/7 42/14/7
f 38/13/7 36/6/7 40/6/7
f 44/5/7 43/7/7 46/13/7
f 33/7/6 38/13/6 46/13/6
f 34/5/5 44/5/5 45/14/5
f 37/14/20 45/14/20 46/13/20
f 47/13/7 48/6/7 49/9/7
f 40/6/6 48/6/6 47/13/6
f 39/13/2 47/13/2 50/14/2
f 48/6/7 53/6/7 54/9/7
f 52/9/4 54/9/4 53/6/4
f 40/6/6 51/6/6 53/6/6
f 41/9/1 52/9/1 51/6/1
f 49/9/5 54/9/5 52/9/5
o BézierCurve
v -1.491832 0.182395 0.506940
v -0.773333 0.155914 0.940179
v -0.268925 0.160999 1.093147
v 0.050485 0.193062 1.008065
v 0.213991 0.247518 0.727157
v 0.250685 0.319777 0.292645
v 0.189661 0.405254 -0.253249
v 0.060014 0.499360 -0.868303
v -0.109165 0.597508 -1.510294
v -0.288780 0.695111 -2.137000
v -0.449740 0.787582 -2.706198
v -0.562950 0.870333 -3.175667
v -0.599312 0.938776 -3.503184
v -0.613698 0.986627 -3.876578
v -0.677954 0.977710 -4.345838
v -0.777275 0.919496 -4.892819
v -0.896856 0.819458 -5.499373
v -1.021893 0.685066 -6.147355
v -1.137581 0.523794 -6.818617
v -1.229116 0.343112 -7.495014
v -1.281694 0.150493 -8.158398
v -1.280509 -0.046592 -8.790623
v -1.210757 -0.240670 -9.373542
v -1.057633 -0.424271 -9.889009
v -0.806334 -0.589921 -10.318873
v -0.658346 -0.693615 -10.563618
v -0.515612 -0.846629 -10.915523
v -0.382757 -1.037707 -11.359202
v -0.264402 -1.255596 -11.879272
v -0.165169 -1.489039 -12.460345
v -0.089680 -1.726783 -13.087037
v -0.042559 -1.957572 -13.743961
v -0.028427 -2.170150 -14.415733
v -0.051906 -2.353264 -15.086967
v -0.117619 -2.495658 -15.742277
v -0.230188 -2.586077 -16.366278
v -0.394235 -2.613266 -16.943584
v -0.547863 -2.591516 -17.406076
v -0.826244 -2.538826 -18.271431
v -1.202482 -2.463491 -19.464594
v -1.649683 -2.373804 -20.910511
v -2.140952 -2.278056 -22.534126
v -2.649393 -2.184541 -24.260387
v -3.148112 -2.101553 -26.014238
v -3.610213 -2.037383 -27.720623
v -4.008802 -2.000325 -29.304489
v -4.316983 -1.998672 -30.690783
v -4.507862 -2.040717 -31.804447
v -4.554544 -2.134752 -32.570423
v -4.513952 -2.188519 -32.727135
v -4.422127 -2.267105 -32.831299
v -4.290675 -2.365458 -32.883656
v -4.131200 -2.478528 -32.884949
v -3.955306 -2.601264 -32.835918
v -3.774597 -2.728614 -32.737305
v -3.600678 -2.855527 -32.589848
v -3.445153 -2.976953 -32.394291
v -3.319627 -3.087839 -32.151371
v -3.235703 -3.183136 -31.861834
v -3.204987 -3.257792 -31.526417
v -3.239082 -3.306756 -31.145866
v -3.281084 -3.298613 -30.758034
v -3.331795 -3.250884 -30.016794
v -3.374867 -3.175889 -29.002489
v -3.393953 -3.085948 -27.795460
v -3.372706 -2.993380 -26.476048
v -3.294778 -2.910507 -25.124592
v -3.143823 -2.849648 -23.821434
v -2.903493 -2.823122 -22.646914
v -2.557442 -2.843250 -21.681372
v -2.089321 -2.922351 -21.005150
v -1.482785 -3.072747 -20.698587
v -0.721486 -3.306756 -20.842024
v -0.501706 -3.362005 -20.977531
v -0.173910 -3.417631 -21.214775
v 0.253275 -3.470507 -21.528633
v 0.771221 -3.517507 -21.893986
v 1.371300 -3.555504 -22.285713
v 2.044884 -3.581371 -22.678694
v 2.783347 -3.591981 -23.047806
v 3.578060 -3.584209 -23.367929
v 4.420395 -3.554927 -23.613945
v 5.301726 -3.501009 -23.760731
v 6.213424 -3.419328 -23.783167
v 7.146861 -3.306756 -23.656132
l 55 56
l 56 57
l 57 58
l 58 59
l 59 60
l 60 61
l 61 62
l 62 63
l 63 64
l 64 65
l 65 66
l 66 67
l 67 68
l 68 69
l 69 70
l 70 71
l 71 72
l 72 73
l 73 74
l 74 75
l 75 76
l 76 77
l 77 78
l 78 79
l 79 80
l 80 81
l 81 82
l 82 83
l 83 84
l 84 85
l 85 86
l 86 87
l 87 88
l 88 89
l 89 90
l 90 91
l 91 92
l 92 93
l 93 94
l 94 95
l 95 96
l 96 97
l 97 98
l 98 99
l 99 100
l 100 101
l 101 102
l 102 103
l 103 104
l 104 105
l 105 106
l 106 107
l 107 108
l 108 109
l 109 110
l 110 111
l 111 112
l 112 113
l 113 114
l 114 115
l 115 116
l 116 117
l 117 118
l 118 119
l 119 120
l 120 121
l 121 122
l 122 123
l 123 124
l 124 125
l 125 126
l 126 127
l 127 128
l 128 129
l 129 130
l 130 131
l 131 132
l 132 133
l 133 134
l 134 135
l 135 136
l 136 137
l 137 138
l 138 139
